<svg class="d-none-lg" width="375" height="2661" viewBox="0 0 375 2661" fill="none" xmlns="http://www.w3.org/2000/svg">
<path d="M-7.58816 457.629H375L375 2551C375 2551 303.238 2589.87 185.39 2589.87C67.5415 2589.87 -8 2660.11 -8 2660.11L-7.58816 457.629Z" fill="#F8F8F8"/>
<path d="M-7.59066 470.998L375 457.629L375 0.5C375 0.5 350.897 78.2157 185.39 78.2157C19.8829 78.2157 -7.58836 144.068 -7.58836 144.068L-7.59066 470.998Z" fill="#F8F8F8"/>
</svg>

<svg class="d-none-md" width="1920" height="1395" viewBox="0 0 1920 1395" fill="none" xmlns="http://www.w3.org/2000/svg">
<path d="M-5.63348 760.962H1925.1L1925.1 988C1925.1 988 1562.95 1133 968.231 1133C373.509 1133 -7.71094 1395 -7.71094 1395L-5.63348 760.962Z" fill="#F8F8F8"/>
<path d="M-7.71094 760.962H1925.1L1925.1 0C1925.1 0 1803.46 289.875 968.231 289.875C133 289.875 -5.63362 535.5 -5.63362 535.5L-7.71094 760.962Z" fill="#F8F8F8"/>
</svg>

