<svg class="step-router-blue-md" width="100vw" height="auto" viewBox="0 0 375 1848" fill="none" xmlns="http://www.w3.org/2000/svg">
<path fill-rule="evenodd" clip-rule="evenodd" d="M159.634 1032.13L375.5 1032.13L375.5 1115L157.517 1115C154.21 1115 150.588 1114.74 146.709 1114.03L154.175 1073.27M159.634 1032.13C93.2824 1032.13 52.7797 1002.12 52.7797 944.576C52.7797 878.26 111.753 857.024 159.634 857.024C207.514 857.024 375.5 857.024 375.5 857.024L375.5 774.151L296.051 775.122L157.517 774.151C161.5 774.179 150.588 774.41 146.709 775.122C54.7826 777.342 -26.0004 832.591 -26.0004 944.576C-26.0004 1047.35 59.2334 1114.03 146.709 1114.03" fill="#F8F8F8"/>
<path d="M169.5 46.0003C194 46.0004 211.95 46 236.5 46C307.469 46 365 103.531 365 174.5C365 245.469 307.469 303 236.5 303C211.95 303 189 303 169.5 303" stroke="#9ED1FF" stroke-width="6"/>
<path d="M205.5 303C181 303 163.05 303 138.5 303C67.5314 303 10 360.531 10 431.5C10 502.469 67.5314 560 138.5 560C163.05 560 186 560 205.5 560" stroke="#9ED1FF" stroke-width="6"/>
<path d="M169.5 560C194 560 211.95 560 236.5 560C307.469 560 365 617.531 365 688.5C365 759.469 307.469 817 236.5 817C211.95 817 189 817 169.5 817" stroke="#9ED1FF" stroke-width="6"/>
<path d="M205.5 817C181 817 163.05 817 138.5 817C67.5314 817 10 874.531 10 945.5C10 1016.47 67.5314 1074 138.5 1074C163.05 1074 186 1074 205.5 1074" stroke="#9ED1FF" stroke-width="6"/>
<path d="M169.5 1074C194 1074 211.95 1074 236.5 1074C307.469 1074 365 1131.53 365 1202.5C365 1273.47 307.469 1331 236.5 1331C211.95 1331 189 1331 169.5 1331" stroke="#9ED1FF" stroke-width="6"/>
<path d="M169.5 1588C194 1588 211.95 1588 236.5 1588C307.469 1588 365 1645.53 365 1716.5C365 1787.47 307.469 1845 236.5 1845C211.95 1845 15.5 1845 -4 1845" stroke="#9ED1FF" stroke-width="6"/>
<path d="M205.5 1331C181 1331 163.05 1331 138.5 1331C67.5314 1331 10 1388.53 10 1459.5C10 1530.47 67.5314 1588 138.5 1588C163.05 1588 186 1588 205.5 1588" stroke="#9ED1FF" stroke-width="6"/>
<circle cx="187.5" cy="32.5" r="32.5" fill="white"/>
<circle cx="65.5" cy="323.5" r="32.5" fill="white"/>
<circle cx="306.5" cy="580.5" r="32.5" fill="white"/>
<path d="M306.5 1066C288.551 1066 274 1080.55 274 1098.5C274 1104.52 275.638 1110.16 278.494 1115H334.506C337.362 1110.16 339 1104.52 339 1098.5C339 1080.55 324.449 1066 306.5 1066Z" fill="#F8F8F8"/>
<circle cx="64.5" cy="1352.5" r="32.5" fill="white"/>
<circle cx="306.5" cy="1609.5" r="32.5" fill="white"/>
<path d="M182.376 49H191V3H182.376L174 8.175V17.7583L182.376 12.4556V49Z" fill="#1D2766"/>
<path d="M74.9537 324.142C80.2602 319.441 83.0986 316.997 83.0986 310.292C83.0986 301.204 76.6197 295 67.9195 295C58.4172 295 52 300.828 52 310.104H60.6385C60.5151 306.343 63.4769 303.022 67.7344 303.022C71.8068 303.022 74.4601 306.03 74.4601 310.166C74.4601 312.109 73.4111 314.302 70.6345 316.809L52 333.605V341H83.0986V332.978H65.0195L74.9537 324.142Z" fill="#1D2766"/>
<path d="M312.59 574.881L321.644 566.033V558H293.736V566.033H311.66L299.628 576.136L303.411 582.851C304.466 582.224 305.644 581.847 306.884 581.847C310.977 581.847 313.892 585.048 313.892 588.939C313.892 592.829 310.729 595.967 306.884 595.967C303.907 595.967 301.055 594.085 300.186 590.759L292 592.955C293.923 599.67 300.186 604 306.884 604C315.319 604 322.451 597.473 322.451 588.939C322.451 582.6 318.978 576.827 312.59 574.881Z" fill="#1D2766"/>
<path d="M308.128 1087.21C306.198 1087.21 303.894 1087.71 301.901 1088.77L302.462 1078.95H319.462V1071H294.989L293.619 1094.97L300.78 1097.16C301.777 1096.22 303.707 1094.84 306.883 1094.84C310.744 1094.84 313.92 1097.97 313.92 1101.85C313.92 1105.73 310.744 1108.86 306.883 1108.86C303.956 1108.86 300.967 1106.86 300.158 1103.67L292 1105.86C293.868 1112.49 299.784 1117 306.572 1117C315.04 1117 322.451 1110.37 322.451 1101.85C322.451 1093.34 316.597 1087.21 308.128 1087.21Z" fill="#1D2766"/>
<path d="M68.8502 1342.7C65.8767 1342.7 62.965 1343.69 60.611 1345.47V1341.66C60.611 1337.61 63.7084 1333.8 68.5405 1333.8C70.5848 1333.8 72.6291 1334.66 74.1159 1336.13L80.125 1330.18C76.8417 1327.17 72.8769 1326 68.5405 1326C58.5047 1326 52 1332.45 52 1342.89V1355.72C52 1365.37 58.6905 1372 67.5493 1372C75.9744 1372 83.0986 1365.49 83.0986 1357.14C83.0986 1348.79 77.2753 1342.7 68.8502 1342.7ZM67.5493 1364.02C63.7084 1364.02 60.611 1360.82 60.611 1357.14C60.611 1353.33 63.7704 1350.2 67.6112 1350.2C71.4521 1350.2 74.5496 1353.33 74.5496 1357.14C74.5496 1360.95 71.3902 1364.02 67.5493 1364.02Z" fill="#1D2766"/>
<path d="M298.18 1628H307.488L322.75 1590.18V1582H294V1590.18H313.504L298.18 1628Z" fill="#1D2766"/>
<path d="M165.316 1828.19H172.08L174.975 1822.63C175.754 1821.01 177.427 1819.97 179.236 1819.97H186.668C186.676 1819.97 186.683 1819.96 186.692 1819.96C186.7 1819.96 186.708 1819.97 186.716 1819.97H190.712L193.81 1814.66C193.773 1814.5 193.728 1814.34 193.675 1814.18C193.486 1813.63 193.211 1813.11 192.855 1812.66C192.84 1812.64 192.825 1812.62 192.81 1812.6C192.624 1812.37 192.418 1812.16 192.195 1811.96C192.179 1811.95 192.162 1811.93 192.146 1811.92C191.915 1811.72 191.668 1811.55 191.402 1811.39C191.14 1811.24 190.864 1811.11 190.581 1811.01C190.559 1811 190.537 1810.99 190.514 1810.98C190.235 1810.88 189.949 1810.81 189.658 1810.76C189.632 1810.76 189.606 1810.75 189.581 1810.75C188.988 1810.66 188.381 1810.67 187.789 1810.79C187.538 1810.84 187.29 1810.9 187.049 1810.99C186.771 1811.09 186.464 1811.07 186.209 1810.92C185.953 1810.78 185.774 1810.52 185.721 1810.23C185.711 1810.18 185.7 1810.12 185.686 1810.07C185.66 1809.97 185.655 1809.87 185.659 1809.77C185.618 1809.69 185.577 1809.6 185.548 1809.51C185.492 1809.33 185.408 1809.17 185.334 1809C185.152 1808.59 184.938 1808.2 184.661 1807.85C184.27 1807.36 183.789 1806.95 183.237 1806.62C182.53 1806.21 181.762 1805.98 180.954 1805.93C180.635 1805.91 180.348 1805.79 180.087 1805.64C179.838 1805.49 179.614 1805.3 179.455 1805.06C179.346 1804.89 179.261 1804.71 179.208 1804.5C179.077 1804.01 179.172 1803.51 179.417 1803.1C179.563 1802.85 179.749 1802.62 180.009 1802.45C181.615 1801.4 183.342 1800.6 185.142 1800.03C187.237 1799.36 189.431 1799 191.663 1799C195.424 1799 199.138 1800.01 202.412 1801.92C208.105 1805.24 211.84 1810.87 212.77 1817.21C212.986 1818.67 213.052 1820.17 212.959 1821.69C212.937 1822.02 212.831 1822.31 212.673 1822.56C212.342 1823.1 211.758 1823.46 211.075 1823.46C210.427 1823.46 209.826 1823.12 209.467 1822.57C209.027 1821.89 208.446 1821.34 207.742 1820.93C206.891 1820.43 205.912 1820.2 204.938 1820.23C204.65 1820.25 204.36 1820.27 204.071 1820.33C204.062 1820.34 204.052 1820.33 204.043 1820.34C203.942 1820.35 203.841 1820.37 203.741 1820.37C203.669 1820.41 203.607 1820.46 203.526 1820.49C203.473 1820.5 203.418 1820.52 203.37 1820.53C203.263 1820.57 203.151 1820.59 203.04 1820.59C202.862 1820.59 202.685 1820.54 202.529 1820.45C202.275 1820.3 202.101 1820.04 202.053 1819.75C202.009 1819.48 201.935 1819.21 201.849 1818.96C201.658 1818.4 201.38 1817.88 201.02 1817.42C201.007 1817.41 200.994 1817.39 200.98 1817.37C200.794 1817.14 200.587 1816.93 200.363 1816.73C200.346 1816.72 200.328 1816.7 200.311 1816.69C200.08 1816.49 199.834 1816.31 199.568 1816.16C199.31 1816.01 199.037 1815.88 198.758 1815.78C198.729 1815.77 198.7 1815.76 198.672 1815.75C198.403 1815.65 198.126 1815.58 197.846 1815.54C197.802 1815.53 197.757 1815.52 197.713 1815.52C197.431 1815.48 197.147 1815.45 196.863 1815.46C196.849 1815.46 196.835 1815.46 196.821 1815.46C196.546 1815.47 196.272 1815.5 196 1815.55C195.845 1815.58 195.692 1815.62 195.54 1815.67L193.029 1819.97H194.466C196.361 1819.97 198.068 1821.09 198.804 1822.8L201.305 1828.19H203.846C204.535 1828.19 205.182 1828.49 205.621 1829.02C206.057 1829.54 206.235 1830.23 206.111 1830.89L205.371 1835.08C205.33 1835.31 205.209 1835.52 205.029 1835.67L204.465 1836.15C204.006 1836.53 203.61 1836.87 203.073 1837.31C202.894 1837.46 202.668 1837.54 202.436 1837.54H200.882C200.806 1840.4 198.462 1842.72 195.577 1842.72C192.691 1842.72 190.346 1840.4 190.27 1837.54H179.682C179.606 1840.4 177.262 1842.72 174.376 1842.72C171.491 1842.72 169.147 1840.4 169.071 1837.54H166.716C165.698 1837.54 164.789 1836.86 164.508 1835.89L163.099 1831.15C162.889 1830.45 163.018 1829.71 163.455 1829.12C163.896 1828.53 164.575 1828.19 165.316 1828.19ZM197.641 1813.49C197.764 1813.51 197.886 1813.52 198.009 1813.54C198.184 1813.56 198.358 1813.6 198.531 1813.64C198.687 1813.67 198.84 1813.71 198.993 1813.76C199.174 1813.81 199.353 1813.87 199.529 1813.94C199.64 1813.98 199.75 1814.02 199.859 1814.07C200.049 1814.15 200.234 1814.25 200.415 1814.35C200.468 1814.38 200.525 1814.4 200.578 1814.43C200.928 1814.63 201.248 1814.87 201.554 1815.13C201.609 1815.17 201.661 1815.22 201.714 1815.27C202.003 1815.52 202.275 1815.79 202.517 1816.09C202.522 1816.1 202.528 1816.1 202.534 1816.11C202.736 1816.36 202.925 1816.62 203.091 1816.89C203.133 1816.75 203.179 1816.61 203.218 1816.46C203.242 1816.38 203.267 1816.29 203.29 1816.2C203.39 1815.83 203.483 1815.46 203.565 1815.09C203.57 1815.07 203.575 1815.05 203.58 1815.03C204.229 1812.12 204.308 1809.49 203.835 1807.45C203.833 1807.44 203.831 1807.43 203.83 1807.42C203.766 1807.15 203.692 1806.89 203.609 1806.64C203.6 1806.62 203.593 1806.59 203.584 1806.57C203.499 1806.32 203.404 1806.08 203.299 1805.85C203.295 1805.84 203.291 1805.83 203.287 1805.83C203.177 1805.59 203.056 1805.37 202.924 1805.16C202.909 1805.14 202.891 1805.11 202.875 1805.09C202.767 1804.93 202.652 1804.77 202.53 1804.62C202.475 1804.56 202.417 1804.5 202.359 1804.44C202.306 1804.38 202.25 1804.33 202.195 1804.27L196.836 1813.45C196.916 1813.45 196.994 1813.46 197.074 1813.46C197.263 1813.47 197.452 1813.48 197.641 1813.49ZM205.753 1818.25C205.824 1818.26 205.895 1818.27 205.966 1818.28C206.203 1818.31 206.438 1818.35 206.671 1818.4C206.751 1818.42 206.832 1818.43 206.911 1818.45C207.179 1818.52 207.441 1818.61 207.7 1818.7C207.789 1818.74 207.877 1818.78 207.965 1818.81C208.201 1818.92 208.432 1819.03 208.657 1819.15C208.688 1819.17 208.722 1819.18 208.753 1819.2C209.629 1819.71 210.393 1820.41 210.978 1821.23C210.98 1821.17 210.977 1821.11 210.98 1821.06C210.998 1820.54 210.993 1820.03 210.972 1819.53C210.965 1819.35 210.954 1819.17 210.942 1819C210.908 1818.51 210.859 1818.03 210.79 1817.55C210.778 1817.46 210.771 1817.38 210.758 1817.29C210.67 1816.74 210.553 1816.19 210.418 1815.65C210.383 1815.51 210.343 1815.37 210.305 1815.23C210.177 1814.76 210.035 1814.3 209.874 1813.85C209.843 1813.76 209.816 1813.67 209.784 1813.58C209.587 1813.06 209.365 1812.54 209.122 1812.03C209.07 1811.92 209.014 1811.81 208.96 1811.71C208.743 1811.27 208.511 1810.85 208.262 1810.43C208.209 1810.34 208.159 1810.25 208.105 1810.16C207.805 1809.68 207.484 1809.21 207.142 1808.75C207.083 1808.68 207.02 1808.6 206.96 1808.52C206.657 1808.13 206.338 1807.75 206.005 1807.39C205.959 1807.34 205.913 1807.28 205.866 1807.23C206.492 1810.19 206.147 1814.01 204.781 1818.23C204.813 1818.23 204.845 1818.23 204.877 1818.23C205.17 1818.22 205.462 1818.23 205.753 1818.25ZM181.378 1803.95C182.38 1804.06 183.363 1804.38 184.24 1804.89C184.593 1805.09 184.919 1805.34 185.228 1805.59C185.309 1805.66 185.382 1805.74 185.46 1805.81C185.677 1806.01 185.882 1806.22 186.071 1806.44C186.152 1806.53 186.229 1806.63 186.304 1806.73C186.479 1806.95 186.636 1807.19 186.78 1807.44C186.839 1807.54 186.903 1807.63 186.957 1807.74C186.981 1807.78 187.014 1807.83 187.037 1807.87C189.989 1804.68 193.172 1802.46 196.098 1801.54C196.101 1801.54 196.105 1801.53 196.108 1801.53C196.026 1801.51 195.943 1801.49 195.86 1801.48C195.634 1801.42 195.407 1801.38 195.178 1801.33C195.019 1801.3 194.858 1801.28 194.698 1801.25C194.466 1801.22 194.233 1801.18 193.999 1801.15C193.846 1801.13 193.691 1801.12 193.537 1801.1C193.295 1801.08 193.053 1801.05 192.81 1801.04C192.689 1801.03 192.567 1801.03 192.445 1801.03C192.183 1801.02 191.921 1801 191.659 1801C189.746 1801 187.864 1801.29 186.06 1801.83C184.421 1802.33 182.846 1803.03 181.378 1803.95ZM189.471 1808.72C190.015 1808.78 190.551 1808.89 191.07 1809.06C191.173 1809.1 191.276 1809.13 191.377 1809.17C191.505 1809.22 191.631 1809.27 191.756 1809.33C191.906 1809.4 192.051 1809.47 192.196 1809.55C192.267 1809.59 192.342 1809.62 192.412 1809.66C192.765 1809.86 193.087 1810.11 193.395 1810.36C193.459 1810.42 193.517 1810.47 193.579 1810.53C193.821 1810.75 194.046 1810.98 194.255 1811.22C194.311 1811.29 194.368 1811.35 194.422 1811.42C194.665 1811.73 194.889 1812.05 195.077 1812.4C195.078 1812.4 195.079 1812.4 195.079 1812.4C195.086 1812.41 195.095 1812.42 195.101 1812.44L200.463 1803.25C200.438 1803.25 200.414 1803.24 200.389 1803.23C200.284 1803.2 200.176 1803.18 200.068 1803.15C199.981 1803.14 199.894 1803.12 199.805 1803.11C199.679 1803.09 199.551 1803.08 199.421 1803.07C199.352 1803.06 199.284 1803.06 199.214 1803.06C199.036 1803.05 198.856 1803.05 198.671 1803.06C198.664 1803.06 198.657 1803.06 198.65 1803.06C196.027 1803.24 192.748 1805.06 189.657 1808.05C189.445 1808.25 189.233 1808.46 189.023 1808.68C189.114 1808.68 189.204 1808.7 189.295 1808.71C189.354 1808.71 189.412 1808.72 189.471 1808.72ZM176.763 1823.53L174.338 1828.18H185.692V1821.97H179.236C178.19 1821.97 177.226 1822.57 176.763 1823.53ZM196.978 1823.61C196.548 1822.61 195.562 1821.97 194.466 1821.97H187.692V1828.18H199.098L196.978 1823.61ZM195.577 1840.72C197.407 1840.72 198.896 1839.23 198.896 1837.4C198.896 1837.17 198.874 1836.96 198.827 1836.73C198.514 1835.19 197.147 1834.07 195.577 1834.07C195.379 1834.07 195.185 1834.08 194.996 1834.12C193.673 1834.35 192.593 1835.38 192.324 1836.74C192.279 1836.96 192.256 1837.18 192.256 1837.4C192.256 1839.23 193.746 1840.72 195.577 1840.72ZM174.376 1840.72C176.207 1840.72 177.696 1839.23 177.696 1837.4C177.696 1837.17 177.673 1836.96 177.626 1836.73C177.314 1835.19 175.947 1834.07 174.376 1834.07C174.179 1834.07 173.985 1834.08 173.796 1834.12C172.473 1834.35 171.393 1835.38 171.125 1836.75C171.08 1836.96 171.057 1837.17 171.057 1837.4C171.057 1839.23 172.546 1840.72 174.376 1840.72ZM165.015 1830.57L166.426 1835.33C166.462 1835.45 166.582 1835.54 166.716 1835.54H169.392C169.398 1835.52 169.408 1835.51 169.414 1835.49C169.446 1835.4 169.491 1835.32 169.528 1835.24C169.608 1835.06 169.691 1834.88 169.791 1834.71C169.846 1834.61 169.91 1834.53 169.971 1834.44C170.07 1834.29 170.171 1834.14 170.284 1834.01C170.357 1833.92 170.436 1833.84 170.515 1833.75C170.632 1833.63 170.752 1833.51 170.88 1833.4C170.968 1833.32 171.058 1833.25 171.151 1833.17C171.286 1833.07 171.425 1832.98 171.569 1832.89C171.668 1832.83 171.765 1832.76 171.868 1832.71C172.022 1832.63 172.182 1832.56 172.344 1832.49C172.447 1832.45 172.547 1832.4 172.653 1832.36C172.835 1832.3 173.023 1832.25 173.213 1832.21C173.307 1832.19 173.398 1832.16 173.494 1832.14C173.782 1832.1 174.076 1832.07 174.376 1832.07C174.675 1832.07 174.968 1832.1 175.255 1832.14C175.352 1832.16 175.443 1832.19 175.538 1832.21C175.726 1832.25 175.912 1832.3 176.092 1832.36C176.2 1832.4 176.303 1832.45 176.409 1832.49C176.567 1832.56 176.722 1832.63 176.872 1832.71C176.98 1832.76 177.082 1832.83 177.186 1832.89C177.322 1832.98 177.454 1833.07 177.582 1833.17C177.683 1833.24 177.781 1833.32 177.876 1833.41C177.993 1833.51 178.103 1833.62 178.211 1833.73C178.301 1833.82 178.39 1833.92 178.473 1834.02C178.571 1834.14 178.66 1834.27 178.748 1834.39C178.822 1834.5 178.897 1834.61 178.963 1834.72C179.047 1834.86 179.117 1835.02 179.187 1835.17C179.238 1835.28 179.295 1835.38 179.338 1835.49C179.344 1835.51 179.352 1835.52 179.358 1835.54H190.592C190.598 1835.52 190.607 1835.51 190.613 1835.49C190.646 1835.4 190.691 1835.32 190.728 1835.24C190.808 1835.06 190.891 1834.88 190.99 1834.71C191.046 1834.61 191.11 1834.53 191.171 1834.44C191.27 1834.29 191.371 1834.14 191.484 1834.01C191.557 1833.92 191.636 1833.84 191.715 1833.75C191.831 1833.63 191.952 1833.51 192.08 1833.4C192.168 1833.32 192.258 1833.25 192.351 1833.17C192.486 1833.07 192.625 1832.98 192.769 1832.89C192.868 1832.83 192.965 1832.76 193.068 1832.71C193.222 1832.63 193.382 1832.56 193.544 1832.49C193.647 1832.45 193.747 1832.4 193.853 1832.36C194.035 1832.3 194.224 1832.25 194.413 1832.21C194.507 1832.19 194.598 1832.16 194.694 1832.14C194.982 1832.1 195.276 1832.07 195.577 1832.07C195.875 1832.07 196.168 1832.1 196.455 1832.14C196.552 1832.16 196.643 1832.19 196.738 1832.21C196.926 1832.25 197.112 1832.3 197.292 1832.36C197.401 1832.4 197.504 1832.45 197.609 1832.49C197.767 1832.56 197.922 1832.63 198.072 1832.71C198.18 1832.76 198.283 1832.83 198.386 1832.89C198.522 1832.98 198.655 1833.07 198.782 1833.17C198.884 1833.24 198.981 1833.32 199.076 1833.41C199.193 1833.51 199.304 1833.62 199.411 1833.73C199.501 1833.82 199.59 1833.92 199.673 1834.02C199.771 1834.14 199.86 1834.27 199.948 1834.39C200.022 1834.5 200.098 1834.61 200.164 1834.72C200.248 1834.86 200.317 1835.02 200.388 1835.17C200.438 1835.28 200.495 1835.38 200.538 1835.49C200.544 1835.51 200.553 1835.52 200.558 1835.54H202.077C202.476 1835.21 202.806 1834.93 203.178 1834.62L203.465 1834.38L204.144 1830.53C204.164 1830.42 204.122 1830.34 204.083 1830.3C204.048 1830.26 203.972 1830.19 203.846 1830.19H200.666C200.657 1830.19 200.649 1830.18 200.639 1830.18H172.715C172.705 1830.18 172.696 1830.19 172.687 1830.19H165.316C165.176 1830.19 165.096 1830.27 165.061 1830.31C165.021 1830.37 164.98 1830.46 165.015 1830.57Z" fill="#E52121"/>
<path d="M210.106 1047.51C206.515 1047.33 204.079 1045.25 204.057 1045.23C203.703 1044.92 203.173 1044.92 202.818 1045.23C202.794 1045.25 200.387 1047.33 196.766 1047.51C196.265 1047.53 195.872 1047.94 195.872 1048.44V1051.84C195.872 1052.35 195.913 1052.84 195.981 1053.33L195.073 1051.59C194.306 1049.98 192.652 1048.95 190.86 1048.95H183.42C183.414 1048.95 183.41 1048.94 183.404 1048.94C183.398 1048.94 183.394 1048.95 183.388 1048.95H175.622C173.75 1048.95 172.067 1050.05 171.349 1051.74L168.819 1057.17H166.241C165.571 1057.17 164.941 1057.47 164.514 1057.98C164.09 1058.49 163.917 1059.16 164.038 1059.81L164.78 1064C164.819 1064.22 164.934 1064.42 165.104 1064.56L167.049 1066.19C167.218 1066.33 167.431 1066.4 167.651 1066.4H169.263C169.308 1069.27 171.649 1071.58 174.523 1071.58C177.397 1071.58 179.736 1069.27 179.782 1066.4H190.469C190.515 1069.27 192.855 1071.58 195.729 1071.58C198.597 1071.58 200.933 1069.27 200.979 1066.4H203.39C204.385 1066.4 205.27 1065.74 205.542 1064.8L206.848 1060.39C209.415 1058.36 211 1055.23 211 1051.84V1048.44C211 1047.94 210.607 1047.53 210.106 1047.51ZM193.392 1052.43L195.86 1057.17H184.344V1050.83H190.86C191.932 1050.83 192.921 1051.44 193.392 1052.43ZM173.066 1052.5C173.5 1051.49 174.504 1050.83 175.622 1050.83H182.464V1057.17H170.894L173.066 1052.5ZM174.523 1069.7C172.657 1069.7 171.138 1068.18 171.138 1066.32C171.138 1066.09 171.16 1065.87 171.204 1065.65C171.204 1065.65 171.205 1065.65 171.205 1065.65C171.382 1064.76 171.908 1064.03 172.614 1063.54C173.164 1063.16 173.82 1062.93 174.523 1062.93C174.724 1062.93 174.922 1062.95 175.114 1062.99C176.463 1063.23 177.565 1064.27 177.84 1065.65L177.841 1065.65C177.884 1065.87 177.906 1066.09 177.906 1066.32C177.906 1068.18 176.388 1069.7 174.523 1069.7ZM195.729 1069.7C193.863 1069.7 192.345 1068.18 192.345 1066.32C192.345 1066.09 192.366 1065.87 192.411 1065.65C192.726 1064.08 194.12 1062.93 195.729 1062.93C196.129 1062.93 196.517 1063.01 196.878 1063.14C197.96 1063.53 198.801 1064.47 199.037 1065.65C199.082 1065.87 199.103 1066.09 199.103 1066.32C199.103 1068.18 197.589 1069.7 195.729 1069.7ZM203.737 1064.27C203.695 1064.42 203.549 1064.52 203.39 1064.52H200.669C200.661 1064.5 200.648 1064.48 200.639 1064.46C200.601 1064.36 200.551 1064.26 200.508 1064.17C200.433 1064 200.357 1063.84 200.267 1063.68C200.209 1063.58 200.144 1063.49 200.08 1063.4C199.985 1063.25 199.887 1063.12 199.779 1062.98C199.705 1062.89 199.626 1062.81 199.546 1062.72C199.432 1062.6 199.314 1062.49 199.189 1062.38C199.101 1062.3 199.011 1062.23 198.918 1062.15C198.786 1062.05 198.648 1061.96 198.507 1061.87C198.409 1061.81 198.312 1061.75 198.21 1061.69C198.058 1061.61 197.9 1061.54 197.74 1061.47C197.638 1061.43 197.538 1061.38 197.433 1061.35C197.253 1061.29 197.066 1061.24 196.879 1061.2C196.786 1061.18 196.696 1061.15 196.602 1061.13C196.316 1061.08 196.025 1061.05 195.729 1061.05C195.431 1061.05 195.14 1061.08 194.854 1061.13C194.759 1061.15 194.669 1061.18 194.575 1061.2C194.388 1061.24 194.201 1061.29 194.021 1061.35C193.915 1061.38 193.815 1061.43 193.712 1061.47C193.552 1061.54 193.395 1061.61 193.244 1061.69C193.14 1061.75 193.042 1061.81 192.943 1061.87C192.802 1061.96 192.666 1062.05 192.535 1062.15C192.44 1062.22 192.349 1062.3 192.259 1062.38C192.136 1062.49 192.02 1062.6 191.907 1062.72C191.825 1062.81 191.745 1062.89 191.668 1062.99C191.562 1063.12 191.466 1063.25 191.372 1063.39C191.307 1063.49 191.24 1063.58 191.181 1063.68C191.092 1063.84 191.018 1064 190.944 1064.16C190.899 1064.26 190.848 1064.35 190.809 1064.46C190.8 1064.48 190.787 1064.5 190.779 1064.52H179.472C179.464 1064.5 179.451 1064.48 179.442 1064.46C179.404 1064.36 179.355 1064.26 179.312 1064.17C179.237 1064 179.161 1063.84 179.07 1063.68C179.012 1063.58 178.946 1063.49 178.882 1063.39C178.787 1063.25 178.689 1063.12 178.582 1062.98C178.507 1062.89 178.427 1062.81 178.347 1062.72C178.233 1062.6 178.115 1062.49 177.991 1062.38C177.902 1062.3 177.812 1062.22 177.718 1062.15C177.586 1062.05 177.449 1061.96 177.308 1061.87C177.209 1061.81 177.111 1061.75 177.008 1061.69C176.856 1061.61 176.699 1061.54 176.54 1061.47C176.436 1061.43 176.336 1061.38 176.23 1061.35C176.05 1061.29 175.864 1061.24 175.676 1061.2C175.583 1061.18 175.493 1061.15 175.397 1061.13C175.112 1061.08 174.82 1061.05 174.523 1061.05C174.225 1061.05 173.934 1061.08 173.648 1061.13C173.554 1061.15 173.464 1061.18 173.371 1061.2C173.183 1061.24 172.996 1061.29 172.815 1061.35C172.71 1061.38 172.61 1061.43 172.508 1061.47C172.348 1061.54 172.189 1061.61 172.037 1061.69C171.935 1061.75 171.838 1061.81 171.74 1061.87C171.598 1061.96 171.46 1062.05 171.327 1062.15C171.233 1062.23 171.144 1062.3 171.056 1062.38C170.931 1062.49 170.812 1062.6 170.698 1062.72C170.618 1062.81 170.539 1062.89 170.464 1062.98C170.356 1063.12 170.259 1063.25 170.163 1063.4C170.099 1063.49 170.033 1063.58 169.976 1063.68C169.885 1063.84 169.81 1064 169.736 1064.16C169.691 1064.26 169.641 1064.36 169.602 1064.46C169.594 1064.48 169.581 1064.5 169.573 1064.52H167.992L166.571 1063.34L165.887 1059.47C165.862 1059.34 165.913 1059.24 165.96 1059.18C166 1059.13 166.09 1059.05 166.241 1059.05H169.418C169.43 1059.05 169.441 1059.05 169.453 1059.05H197.375C197.387 1059.05 197.399 1059.05 197.411 1059.05H198.616C199.812 1060.41 201.345 1061.48 203.122 1062.12C203.224 1062.15 203.33 1062.17 203.438 1062.17C203.545 1062.17 203.652 1062.15 203.755 1062.12C203.995 1062.03 204.229 1061.93 204.46 1061.83L203.737 1064.27ZM209.12 1051.84C209.12 1055.53 206.851 1058.86 203.438 1060.23C200.023 1058.86 197.752 1055.53 197.752 1051.84V1049.31C200.459 1048.97 202.477 1047.79 203.438 1047.12C204.397 1047.79 206.414 1048.97 209.12 1049.31V1051.84Z" fill="#E52121"/>
<path fill-rule="evenodd" clip-rule="evenodd" d="M194.959 555.529V543.395V541.395V535.66H186.111C184.947 535.66 184 534.712 184 533.548V531.97C184 530.811 184.944 529.867 186.104 529.867H199.051C197.641 528.544 196.752 526.316 196.752 524.623C196.752 521.919 198.925 519.719 201.595 519.719C204.265 519.719 206.437 521.919 206.437 524.623C206.437 526.316 205.548 528.544 204.138 529.867H206.484C208.904 529.867 210.873 531.835 210.873 534.255V541.378L210.873 543.386V544.78C210.873 545.948 209.926 546.899 208.761 546.899H207.064V555.529C207.064 556.681 206.124 557.618 204.968 557.618H201.015H200.5H197.056C195.9 557.618 194.959 556.681 194.959 555.529ZM198.752 524.623C198.752 523.021 200.027 521.719 201.595 521.719C203.162 521.719 204.437 523.021 204.437 524.623C204.437 526.429 202.967 528.995 201.595 528.995C200.222 528.995 198.752 526.429 198.752 524.623ZM208.761 544.899C208.814 544.899 208.873 544.85 208.873 544.78L208.873 534.255C208.873 532.938 207.801 531.867 206.484 531.867H186.104C186.047 531.867 186 531.913 186 531.97V533.548C186 533.61 186.05 533.66 186.111 533.66H195.959C196.512 533.66 196.959 534.107 196.959 534.66V555.529C196.959 555.572 196.998 555.618 197.056 555.618H200.013V548.808C200.013 548.256 200.46 547.808 201.013 547.808C201.565 547.808 202.013 548.256 202.013 548.808V555.616L204.968 555.618C205.025 555.618 205.064 555.572 205.064 555.529L205.063 538.736C205.063 538.184 205.511 537.736 206.063 537.736C206.615 537.736 207.063 538.184 207.063 538.736V544.899H208.761Z" fill="#E52121"/>
<path fill-rule="evenodd" clip-rule="evenodd" d="M191.208 518.698C191.208 517.21 189.998 516 188.51 516H166.698C165.21 516 164 517.21 164 518.698V555.066C164 556.554 165.21 557.764 166.698 557.764H188.51C189.998 557.764 191.208 556.554 191.208 555.066V534.719H189.208V549.609H166V524.155H189.208V530.719H191.208V518.698ZM166.698 518C166.313 518 166 518.313 166 518.698L166 522.155H189.208V518.698C189.208 518.313 188.895 518 188.51 518H166.698ZM188.51 555.764C188.896 555.764 189.208 555.451 189.208 555.066L189.209 551.609H166V555.066C166 555.451 166.313 555.764 166.698 555.764H188.51Z" fill="#E52121"/>
<path d="M177.604 555.502C178.607 555.502 179.42 554.689 179.42 553.687C179.42 552.684 178.607 551.871 177.604 551.871C176.601 551.871 175.788 552.684 175.788 553.687C175.788 554.689 176.601 555.502 177.604 555.502Z" fill="#E52121"/>
<path d="M180.99 519.078H174.219C173.666 519.078 173.219 519.525 173.219 520.078C173.219 520.63 173.666 521.078 174.219 521.078H180.99C181.542 521.078 181.99 520.63 181.99 520.078C181.99 519.525 181.542 519.078 180.99 519.078Z" fill="#E52121"/>
</svg>
