<svg class="step-line-blue-lg" width="100vw" height="auto" viewBox="0 0 1920 1849" fill="none" xmlns="http://www.w3.org/2000/svg">
    <path fill-rule="evenodd" clip-rule="evenodd" d="M430.075 1139.34L1920.5 1139.34L1920.5 1325.34L425.32 1325.34C417.889 1325.34 409.751 1324.76 401.037 1323.16L415.556 1231.25M430.075 1139.34C281 1139.34 190 1072 190 942.839C190 794 322.5 746.339 430.075 746.339C537.65 746.339 1920.5 746.339 1920.5 746.339L1920.5 560.339L1742 562.518L425.32 560.339C434.583 559.273 409.751 560.92 401.036 562.518C194.5 567.5 13.0001 691.5 13 942.839C13 1173.5 204.5 1323.16 401.037 1323.16" fill="#F8F8F8"/>
    <path d="M411 1228H1510C1658.5 1228 1812 1328.5 1812 1518.5C1812 1655.5 1711 1807 1510 1807H-19" stroke="#9ED1FF" stroke-width="10"/>
    <path d="M558 70H1514.5C1654 70.0003 1815.5 174.5 1815.5 358C1815.5 564 1648.5 649 1514.5 649H662" stroke="#9ED1FF" stroke-width="10"/>
    <path d="M1389 1228L415 1228C281 1234.5 104 1146.5 104 938.5C104 730.5 286.5 640.5 415 649L1267.5 649" stroke="#9ED1FF" stroke-width="10"/>
    <circle cx="549.5" cy="56.5" r="56.5" fill="white"/>
    <circle cx="1377.5" cy="56.5" r="56.5" fill="white"/>
    <circle cx="1377.5" cy="629.5" r="56.5" fill="#F8F8F8"/>
    <circle cx="543.5" cy="633.5" r="56.5" fill="#F8F8F8"/>
    <circle cx="549.5" cy="1209.5" r="56.5" fill="#F8F8F8"/>
    <circle cx="1377.5" cy="1214.5" r="56.5" fill="#F8F8F8"/>
    <path d="M547.303 78H561V7H547.303L534 14.9875V29.7792L547.303 21.5944V78Z" fill="#1D2766"/>
    <path d="M1388.43 51.9796C1396.62 44.7248 1401 40.9523 1401 30.6022C1401 16.5763 1391 7 1377.57 7C1362.9 7 1353 15.9959 1353 30.312H1366.33C1366.14 24.5082 1370.71 19.3815 1377.29 19.3815C1383.57 19.3815 1387.67 24.0245 1387.67 30.4087C1387.67 33.4074 1386.05 36.7929 1381.76 40.6621L1353 66.5858V78H1401V65.6185H1373.1L1388.43 51.9796Z" fill="#1D2766"/>
    <path d="M1385.78 612.056L1399.76 598.398V586H1356.68V598.398H1384.34L1365.77 613.993L1371.61 624.357C1373.24 623.389 1375.06 622.808 1376.97 622.808C1383.29 622.808 1387.79 627.748 1387.79 633.753C1387.79 639.759 1382.91 644.602 1376.97 644.602C1372.38 644.602 1367.98 641.696 1366.64 636.562L1354 639.952C1356.97 650.317 1366.64 657 1376.97 657C1389.99 657 1401 646.926 1401 633.753C1401 623.97 1395.64 615.059 1385.78 612.056Z" fill="#1D2766"/>
    <path d="M549.388 657H562.786V645.956H569V633.432H562.786V615.682H549.388V633.432H534.146L556.184 586H541.039L519 633.432V645.956H549.388V657Z" fill="#1D2766"/>
    <path d="M550.894 1187.02C547.914 1187.02 544.358 1187.79 541.282 1189.43L542.147 1174.27H568.387V1162H530.613L528.499 1199L539.552 1202.38C541.09 1200.93 544.07 1198.8 548.971 1198.8C554.93 1198.8 559.832 1203.63 559.832 1209.62C559.832 1215.61 554.93 1220.44 548.971 1220.44C544.454 1220.44 539.84 1217.35 538.591 1212.42L526 1215.81C528.883 1226.04 538.014 1233 548.491 1233C561.562 1233 573 1222.76 573 1209.62C573 1196.49 563.965 1187.02 550.894 1187.02Z" fill="#1D2766"/>
    <path d="M1380.01 1190.78C1375.42 1190.78 1370.92 1192.3 1367.29 1195.05V1189.17C1367.29 1182.92 1372.07 1177.04 1379.53 1177.04C1382.69 1177.04 1385.84 1178.37 1388.14 1180.64L1397.41 1171.45C1392.34 1166.8 1386.22 1165 1379.53 1165C1364.04 1165 1354 1174.95 1354 1191.07V1210.88C1354 1225.76 1364.33 1236 1378 1236C1391 1236 1402 1225.95 1402 1213.06C1402 1200.17 1393.01 1190.78 1380.01 1190.78ZM1378 1223.68C1372.07 1223.68 1367.29 1218.75 1367.29 1213.06C1367.29 1207.18 1372.17 1202.35 1378.1 1202.35C1384.02 1202.35 1388.8 1207.18 1388.8 1213.06C1388.8 1218.94 1383.93 1223.68 1378 1223.68Z" fill="#1D2766"/>
    <circle cx="1240.5" cy="1792.5" r="56.5" fill="white"/>
    <path d="M1228.54 1814H1243.11L1267 1754.8V1742H1222V1754.8H1252.53L1228.54 1814Z" fill="#1D2766"/>
    <path d="M531.512 1766.47H547.61L554.5 1753.25C556.354 1749.39 560.335 1746.9 564.642 1746.9H582.329C582.349 1746.9 582.366 1746.89 582.386 1746.89C582.407 1746.89 582.424 1746.9 582.444 1746.9H591.955L599.328 1734.27C599.239 1733.88 599.132 1733.5 599.006 1733.13C598.556 1731.81 597.903 1730.59 597.056 1729.51C597.019 1729.46 596.984 1729.41 596.947 1729.37C596.504 1728.82 596.016 1728.31 595.483 1727.85C595.445 1727.82 595.405 1727.79 595.367 1727.75C594.818 1727.29 594.23 1726.86 593.597 1726.49C592.974 1726.12 592.317 1725.83 591.643 1725.58C591.59 1725.56 591.537 1725.54 591.484 1725.52C590.82 1725.29 590.137 1725.11 589.445 1724.99C589.384 1724.98 589.323 1724.98 589.262 1724.97C587.851 1724.75 586.406 1724.78 584.997 1725.06C584.401 1725.18 583.81 1725.33 583.237 1725.54C582.576 1725.78 581.845 1725.72 581.237 1725.37C580.627 1725.03 580.202 1724.43 580.075 1723.74C580.052 1723.61 580.026 1723.47 579.992 1723.34C579.931 1723.11 579.919 1722.87 579.929 1722.64C579.83 1722.44 579.734 1722.23 579.665 1722.01C579.531 1721.59 579.33 1721.2 579.154 1720.8C578.722 1719.82 578.213 1718.89 577.554 1718.06C576.623 1716.9 575.478 1715.91 574.163 1715.14C572.48 1714.16 570.652 1713.6 568.73 1713.48C567.971 1713.44 567.287 1713.16 566.667 1712.79C566.074 1712.44 565.54 1712 565.163 1711.42C564.902 1711.02 564.701 1710.58 564.575 1710.1C564.262 1708.91 564.488 1707.74 565.072 1706.75C565.419 1706.15 565.861 1705.61 566.481 1705.2C570.303 1702.72 574.414 1700.81 578.697 1699.44C583.684 1697.85 588.906 1697 594.218 1697C603.168 1697 612.009 1699.4 619.801 1703.95C633.351 1711.86 642.239 1725.25 644.453 1740.33C644.966 1743.82 645.124 1747.39 644.902 1751.01C644.849 1751.78 644.598 1752.48 644.221 1753.08C643.435 1754.36 642.044 1755.2 640.419 1755.2C638.877 1755.2 637.446 1754.42 636.592 1753.1C635.544 1751.49 634.162 1750.17 632.485 1749.19C630.461 1748.01 628.132 1747.45 625.813 1747.54C625.126 1747.56 624.436 1747.63 623.75 1747.78C623.727 1747.78 623.705 1747.77 623.682 1747.78C623.442 1747.82 623.201 1747.85 622.962 1747.86C622.792 1747.95 622.644 1748.08 622.451 1748.14C622.326 1748.17 622.195 1748.21 622.081 1748.25C621.825 1748.34 621.56 1748.39 621.295 1748.39C620.872 1748.39 620.45 1748.27 620.078 1748.05C619.474 1747.69 619.059 1747.08 618.946 1746.39C618.841 1745.74 618.666 1745.11 618.46 1744.5C618.007 1743.17 617.345 1741.93 616.488 1740.85C616.456 1740.81 616.425 1740.76 616.393 1740.72C615.949 1740.18 615.457 1739.67 614.923 1739.2C614.883 1739.16 614.84 1739.13 614.799 1739.1C614.25 1738.63 613.664 1738.2 613.032 1737.84C612.417 1737.48 611.768 1737.18 611.103 1736.94C611.035 1736.91 610.967 1736.88 610.898 1736.86C610.258 1736.64 609.6 1736.47 608.933 1736.36C608.828 1736.34 608.722 1736.32 608.616 1736.31C607.946 1736.21 607.27 1736.15 606.593 1736.17C606.56 1736.17 606.528 1736.17 606.495 1736.17C605.839 1736.19 605.186 1736.27 604.541 1736.4C604.171 1736.47 603.806 1736.56 603.444 1736.67L597.468 1746.9H600.89C605.4 1746.9 609.462 1749.57 611.213 1753.63L617.165 1766.47H623.214C624.854 1766.47 626.393 1767.19 627.438 1768.45C628.476 1769.7 628.899 1771.33 628.605 1772.9L626.843 1782.87C626.745 1783.42 626.457 1783.92 626.028 1784.28L624.687 1785.41C623.595 1786.33 622.652 1787.12 621.373 1788.17C620.946 1788.53 620.411 1788.72 619.859 1788.72H616.16C615.979 1795.54 610.4 1801.05 603.532 1801.05C596.664 1801.05 591.084 1795.54 590.903 1788.72H565.703C565.522 1795.54 559.944 1801.05 553.075 1801.05C546.207 1801.05 540.629 1795.54 540.448 1788.72H534.844C532.421 1788.72 530.257 1787.1 529.588 1784.8L526.235 1773.51C525.734 1771.84 526.043 1770.09 527.082 1768.69C528.133 1767.28 529.747 1766.47 531.512 1766.47ZM608.445 1731.49C608.739 1731.52 609.03 1731.56 609.321 1731.6C609.738 1731.66 610.151 1731.75 610.563 1731.84C610.934 1731.92 611.3 1732.01 611.664 1732.12C612.094 1732.25 612.52 1732.39 612.939 1732.55C613.204 1732.65 613.465 1732.75 613.725 1732.87C614.175 1733.07 614.616 1733.29 615.048 1733.52C615.175 1733.59 615.31 1733.64 615.435 1733.71C616.269 1734.2 617.031 1734.77 617.759 1735.38C617.889 1735.49 618.013 1735.6 618.139 1735.71C618.828 1736.32 619.474 1736.97 620.05 1737.67C620.063 1737.69 620.077 1737.7 620.09 1737.72C620.572 1738.31 621.021 1738.93 621.417 1739.58C621.517 1739.24 621.626 1738.9 621.719 1738.56C621.777 1738.36 621.834 1738.15 621.889 1737.95C622.128 1737.06 622.349 1736.17 622.545 1735.3C622.556 1735.26 622.569 1735.21 622.58 1735.16C624.125 1728.22 624.312 1721.97 623.188 1717.1C623.183 1717.09 623.179 1717.07 623.174 1717.05C623.023 1716.4 622.846 1715.78 622.649 1715.19C622.629 1715.13 622.61 1715.07 622.59 1715.01C622.387 1714.41 622.161 1713.85 621.911 1713.31C621.901 1713.29 621.893 1713.26 621.883 1713.24C621.621 1712.68 621.332 1712.16 621.019 1711.66C620.982 1711.6 620.94 1711.55 620.903 1711.5C620.646 1711.1 620.371 1710.73 620.082 1710.38C619.951 1710.23 619.812 1710.08 619.675 1709.94C619.549 1709.8 619.416 1709.68 619.285 1709.55L606.529 1731.39C606.72 1731.39 606.906 1731.42 607.096 1731.42C607.546 1731.43 607.996 1731.45 608.445 1731.49ZM627.752 1742.82C627.922 1742.84 628.089 1742.87 628.259 1742.89C628.823 1742.95 629.382 1743.05 629.937 1743.17C630.128 1743.21 630.319 1743.25 630.509 1743.29C631.145 1743.46 631.77 1743.66 632.385 1743.9C632.599 1743.98 632.807 1744.07 633.017 1744.16C633.578 1744.4 634.129 1744.66 634.663 1744.97C634.737 1745.01 634.819 1745.03 634.893 1745.08C636.977 1746.29 638.794 1747.96 640.187 1749.91C640.193 1749.77 640.186 1749.63 640.191 1749.49C640.235 1748.27 640.224 1747.06 640.174 1745.86C640.156 1745.43 640.131 1745.01 640.102 1744.59C640.022 1743.44 639.905 1742.29 639.74 1741.15C639.711 1740.95 639.696 1740.74 639.664 1740.54C639.455 1739.22 639.176 1737.92 638.855 1736.63C638.771 1736.29 638.677 1735.96 638.585 1735.62C638.282 1734.51 637.943 1733.42 637.559 1732.34C637.485 1732.13 637.422 1731.92 637.345 1731.71C636.876 1730.45 636.348 1729.22 635.771 1728.01C635.648 1727.75 635.513 1727.5 635.385 1727.24C634.869 1726.21 634.315 1725.19 633.723 1724.2C633.597 1723.99 633.479 1723.78 633.351 1723.57C632.637 1722.42 631.872 1721.3 631.057 1720.21C630.917 1720.03 630.767 1719.85 630.624 1719.67C629.904 1718.74 629.146 1717.84 628.352 1716.96C628.242 1716.84 628.133 1716.72 628.021 1716.6C629.512 1723.64 628.689 1732.72 625.438 1742.77C625.515 1742.77 625.591 1742.78 625.668 1742.78C626.363 1742.75 627.059 1742.76 627.752 1742.82ZM569.739 1708.78C572.124 1709.03 574.464 1709.8 576.55 1711.01C577.391 1711.5 578.166 1712.08 578.901 1712.69C579.096 1712.86 579.269 1713.04 579.456 1713.21C579.972 1713.68 580.459 1714.17 580.91 1714.7C581.101 1714.93 581.284 1715.16 581.464 1715.39C581.879 1715.93 582.252 1716.49 582.596 1717.08C582.737 1717.32 582.888 1717.55 583.017 1717.79C583.075 1717.9 583.152 1718 583.207 1718.12C590.233 1710.51 597.809 1705.25 604.773 1703.04C604.781 1703.04 604.789 1703.03 604.798 1703.03C604.601 1702.98 604.405 1702.94 604.208 1702.89C603.668 1702.77 603.128 1702.65 602.584 1702.55C602.204 1702.48 601.823 1702.42 601.441 1702.36C600.888 1702.27 600.334 1702.18 599.778 1702.11C599.412 1702.07 599.045 1702.04 598.679 1702C598.102 1701.95 597.527 1701.89 596.948 1701.85C596.659 1701.83 596.369 1701.83 596.079 1701.82C595.456 1701.8 594.832 1701.77 594.207 1701.77C589.656 1701.77 585.175 1702.45 580.881 1703.74C576.982 1704.92 573.234 1706.59 569.739 1708.78ZM589 1720.14C590.296 1720.27 591.57 1720.53 592.807 1720.95C593.052 1721.03 593.296 1721.12 593.537 1721.21C593.841 1721.33 594.142 1721.45 594.44 1721.58C594.795 1721.74 595.142 1721.92 595.486 1722.11C595.656 1722.2 595.834 1722.27 596.001 1722.37C596.84 1722.86 597.608 1723.43 598.339 1724.04C598.491 1724.17 598.631 1724.31 598.779 1724.44C599.355 1724.96 599.89 1725.51 600.386 1726.09C600.52 1726.25 600.656 1726.4 600.784 1726.57C601.361 1727.3 601.895 1728.07 602.343 1728.89C602.345 1728.89 602.347 1728.89 602.349 1728.9C602.364 1728.93 602.385 1728.95 602.4 1728.98L615.162 1707.12C615.102 1707.1 615.046 1707.08 614.986 1707.06C614.737 1706.99 614.479 1706.94 614.221 1706.89C614.014 1706.85 613.808 1706.8 613.596 1706.77C613.297 1706.73 612.991 1706.7 612.682 1706.68C612.519 1706.67 612.355 1706.66 612.19 1706.65C611.766 1706.64 611.336 1706.64 610.896 1706.67C610.88 1706.67 610.863 1706.67 610.847 1706.67C604.605 1707.08 596.8 1711.41 589.445 1718.53C588.94 1719.03 588.435 1719.52 587.934 1720.04C588.151 1720.05 588.365 1720.09 588.582 1720.1C588.722 1720.11 588.861 1720.13 589 1720.14ZM558.756 1755.38L552.983 1766.46H580.006V1751.66H564.642C562.153 1751.66 559.856 1753.09 558.756 1755.38ZM606.868 1755.58C605.844 1753.2 603.497 1751.66 600.89 1751.66H584.766V1766.46H611.914L606.868 1755.58ZM603.532 1796.29C607.889 1796.29 611.433 1792.74 611.433 1788.39C611.433 1787.86 611.379 1787.33 611.267 1786.81C610.524 1783.13 607.271 1780.46 603.532 1780.46C603.063 1780.46 602.601 1780.5 602.151 1780.58C599.001 1781.14 596.431 1783.59 595.791 1786.83C595.684 1787.34 595.63 1787.86 595.63 1788.39C595.63 1792.74 599.174 1796.29 603.532 1796.29ZM553.076 1796.29C557.432 1796.29 560.977 1792.74 560.977 1788.39C560.977 1787.86 560.922 1787.33 560.811 1786.81C560.067 1783.13 556.814 1780.46 553.076 1780.46C552.606 1780.46 552.144 1780.5 551.694 1780.58C548.545 1781.14 545.975 1783.59 545.336 1786.84C545.229 1787.33 545.174 1787.86 545.174 1788.39C545.174 1792.74 548.719 1796.29 553.076 1796.29ZM530.795 1772.14L534.154 1783.46C534.24 1783.75 534.523 1783.96 534.844 1783.96H541.213C541.227 1783.92 541.249 1783.88 541.264 1783.85C541.342 1783.64 541.448 1783.45 541.536 1783.25C541.728 1782.82 541.925 1782.39 542.161 1781.99C542.293 1781.76 542.446 1781.55 542.591 1781.34C542.826 1780.99 543.067 1780.64 543.335 1780.32C543.51 1780.11 543.697 1779.91 543.885 1779.71C544.163 1779.42 544.449 1779.13 544.754 1778.87C544.964 1778.68 545.178 1778.51 545.4 1778.34C545.72 1778.09 546.051 1777.87 546.394 1777.65C546.629 1777.5 546.861 1777.36 547.106 1777.23C547.472 1777.03 547.852 1776.86 548.237 1776.7C548.483 1776.6 548.722 1776.49 548.975 1776.4C549.408 1776.25 549.855 1776.15 550.307 1776.04C550.531 1775.99 550.747 1775.92 550.975 1775.88C551.661 1775.77 552.361 1775.7 553.075 1775.7C553.786 1775.7 554.483 1775.77 555.167 1775.88C555.397 1775.92 555.615 1775.99 555.84 1776.05C556.286 1776.15 556.729 1776.25 557.158 1776.4C557.417 1776.49 557.662 1776.6 557.913 1776.71C558.288 1776.87 558.658 1777.03 559.015 1777.22C559.271 1777.36 559.515 1777.51 559.762 1777.67C560.086 1777.87 560.401 1778.08 560.705 1778.31C560.946 1778.5 561.178 1778.69 561.405 1778.89C561.683 1779.13 561.945 1779.39 562.202 1779.66C562.416 1779.88 562.627 1780.11 562.824 1780.35C563.059 1780.63 563.27 1780.93 563.479 1781.24C563.655 1781.49 563.835 1781.74 563.993 1782.01C564.192 1782.35 564.357 1782.72 564.525 1783.08C564.645 1783.34 564.782 1783.59 564.884 1783.86C564.898 1783.89 564.918 1783.92 564.931 1783.96H591.668C591.683 1783.92 591.705 1783.88 591.72 1783.85C591.798 1783.64 591.904 1783.45 591.992 1783.25C592.183 1782.82 592.38 1782.39 592.617 1781.99C592.749 1781.76 592.901 1781.55 593.046 1781.34C593.282 1780.99 593.522 1780.64 593.791 1780.32C593.966 1780.11 594.152 1779.91 594.34 1779.71C594.618 1779.42 594.905 1779.13 595.209 1778.87C595.42 1778.68 595.634 1778.51 595.855 1778.34C596.176 1778.09 596.507 1777.87 596.85 1777.65C597.085 1777.5 597.317 1777.36 597.561 1777.23C597.928 1777.03 598.308 1776.86 598.694 1776.7C598.939 1776.6 599.178 1776.49 599.43 1776.4C599.864 1776.25 600.312 1776.15 600.764 1776.04C600.988 1775.99 601.204 1775.92 601.432 1775.88C602.118 1775.77 602.818 1775.7 603.532 1775.7C604.243 1775.7 604.94 1775.77 605.624 1775.88C605.853 1775.92 606.071 1775.99 606.297 1776.05C606.743 1776.15 607.186 1776.25 607.614 1776.4C607.873 1776.49 608.118 1776.6 608.37 1776.71C608.745 1776.87 609.115 1777.03 609.472 1777.22C609.728 1777.36 609.972 1777.51 610.218 1777.67C610.543 1777.87 610.858 1778.08 611.162 1778.31C611.403 1778.5 611.635 1778.69 611.862 1778.89C612.14 1779.13 612.402 1779.39 612.658 1779.66C612.873 1779.88 613.084 1780.11 613.281 1780.35C613.516 1780.63 613.726 1780.93 613.936 1781.24C614.112 1781.49 614.292 1781.74 614.449 1782.01C614.649 1782.35 614.814 1782.72 614.982 1783.08C615.102 1783.34 615.238 1783.59 615.341 1783.86C615.354 1783.89 615.375 1783.92 615.388 1783.96H619.002C619.953 1783.17 620.739 1782.51 621.624 1781.76L622.306 1781.19L623.922 1772.05C623.97 1771.79 623.869 1771.6 623.776 1771.49C623.695 1771.39 623.514 1771.23 623.214 1771.23H615.646C615.624 1771.23 615.604 1771.22 615.582 1771.22H549.121C549.098 1771.22 549.077 1771.23 549.053 1771.23H531.512C531.178 1771.23 530.987 1771.41 530.903 1771.53C530.808 1771.66 530.712 1771.86 530.795 1772.14Z" fill="#E52121"/>
    <path d="M1278.94 1166.92C1270.46 1166.5 1264.7 1161.6 1264.65 1161.55C1263.81 1160.82 1262.56 1160.82 1261.72 1161.55C1261.66 1161.6 1255.98 1166.5 1247.42 1166.92C1246.24 1166.98 1245.31 1167.96 1245.31 1169.14V1177.17C1245.31 1178.36 1245.41 1179.53 1245.57 1180.68L1243.42 1176.57C1241.61 1172.78 1237.7 1170.33 1233.47 1170.33H1215.89C1215.87 1170.33 1215.86 1170.32 1215.85 1170.32C1215.84 1170.32 1215.82 1170.33 1215.81 1170.33H1197.46C1193.04 1170.33 1189.06 1172.94 1187.37 1176.92L1181.39 1189.76H1175.29C1173.71 1189.76 1172.22 1190.46 1171.21 1191.67C1170.21 1192.88 1169.8 1194.46 1170.09 1195.99L1171.84 1205.9C1171.94 1206.41 1172.21 1206.88 1172.61 1207.22L1177.2 1211.06C1177.6 1211.39 1178.11 1211.57 1178.63 1211.57H1182.43C1182.54 1218.34 1188.07 1223.81 1194.86 1223.81C1201.65 1223.81 1207.18 1218.34 1207.29 1211.57H1232.54C1232.65 1218.34 1238.18 1223.81 1244.97 1223.81C1251.75 1223.81 1257.27 1218.34 1257.38 1211.57H1263.07C1265.42 1211.57 1267.51 1210.01 1268.16 1207.78L1271.24 1197.37C1277.31 1192.57 1281.05 1185.17 1281.05 1177.17V1169.14C1281.05 1167.96 1280.13 1166.98 1278.94 1166.92ZM1239.45 1178.55L1245.28 1189.75H1218.07V1174.77H1233.47C1236 1174.77 1238.33 1176.23 1239.45 1178.55ZM1191.42 1178.73C1192.45 1176.32 1194.82 1174.77 1197.46 1174.77H1213.63V1189.75H1186.29L1191.42 1178.73ZM1194.86 1219.37C1190.45 1219.37 1186.87 1215.78 1186.87 1211.37C1186.87 1210.84 1186.92 1210.32 1187.02 1209.8C1187.02 1209.79 1187.02 1209.79 1187.02 1209.79C1187.44 1207.7 1188.69 1205.95 1190.35 1204.81C1191.65 1203.92 1193.2 1203.38 1194.86 1203.38C1195.34 1203.38 1195.81 1203.42 1196.26 1203.5C1199.45 1204.07 1202.05 1206.54 1202.7 1209.79L1202.7 1209.79C1202.81 1210.32 1202.86 1210.84 1202.86 1211.37C1202.86 1215.78 1199.27 1219.37 1194.86 1219.37ZM1244.97 1219.37C1240.56 1219.37 1236.98 1215.78 1236.98 1211.37C1236.98 1210.83 1237.02 1210.31 1237.13 1209.79C1237.88 1206.07 1241.17 1203.38 1244.97 1203.38C1245.92 1203.38 1246.83 1203.55 1247.68 1203.86C1250.24 1204.79 1252.23 1207 1252.79 1209.79C1252.89 1210.31 1252.94 1210.83 1252.94 1211.37C1252.94 1215.78 1249.37 1219.37 1244.97 1219.37ZM1263.89 1206.54C1263.79 1206.88 1263.45 1207.13 1263.07 1207.13H1256.64C1256.62 1207.08 1256.59 1207.03 1256.57 1206.97C1256.48 1206.74 1256.37 1206.52 1256.26 1206.29C1256.09 1205.9 1255.91 1205.51 1255.69 1205.14C1255.56 1204.91 1255.4 1204.69 1255.25 1204.46C1255.03 1204.13 1254.8 1203.8 1254.54 1203.49C1254.36 1203.28 1254.18 1203.08 1253.99 1202.88C1253.72 1202.59 1253.44 1202.32 1253.15 1202.06C1252.94 1201.88 1252.73 1201.7 1252.51 1201.53C1252.19 1201.29 1251.87 1201.07 1251.53 1200.86C1251.3 1200.72 1251.07 1200.57 1250.83 1200.44C1250.47 1200.25 1250.1 1200.08 1249.72 1199.92C1249.48 1199.82 1249.25 1199.71 1249 1199.63C1248.57 1199.48 1248.13 1199.38 1247.69 1199.27C1247.47 1199.22 1247.26 1199.16 1247.03 1199.12C1246.36 1199 1245.67 1198.94 1244.97 1198.94C1244.27 1198.94 1243.58 1199 1242.9 1199.12C1242.68 1199.16 1242.47 1199.23 1242.24 1199.28C1241.8 1199.38 1241.36 1199.48 1240.94 1199.63C1240.69 1199.71 1240.45 1199.82 1240.2 1199.93C1239.83 1200.08 1239.46 1200.25 1239.1 1200.44C1238.85 1200.57 1238.62 1200.72 1238.39 1200.87C1238.06 1201.07 1237.73 1201.29 1237.42 1201.53C1237.2 1201.7 1236.98 1201.88 1236.77 1202.06C1236.48 1202.32 1236.21 1202.59 1235.94 1202.87C1235.75 1203.08 1235.56 1203.28 1235.38 1203.5C1235.13 1203.8 1234.9 1204.13 1234.68 1204.45C1234.52 1204.68 1234.36 1204.9 1234.22 1205.14C1234.01 1205.51 1233.84 1205.89 1233.67 1206.27C1233.56 1206.51 1233.44 1206.73 1233.34 1206.98C1233.32 1207.03 1233.29 1207.08 1233.27 1207.13H1206.56C1206.54 1207.08 1206.51 1207.03 1206.49 1206.97C1206.4 1206.74 1206.28 1206.52 1206.18 1206.29C1206 1205.9 1205.82 1205.51 1205.61 1205.14C1205.47 1204.91 1205.31 1204.69 1205.16 1204.46C1204.94 1204.13 1204.71 1203.8 1204.45 1203.5C1204.28 1203.28 1204.09 1203.08 1203.9 1202.88C1203.63 1202.59 1203.35 1202.32 1203.06 1202.06C1202.85 1201.88 1202.63 1201.7 1202.41 1201.53C1202.1 1201.29 1201.78 1201.07 1201.44 1200.86C1201.21 1200.72 1200.98 1200.57 1200.74 1200.44C1200.38 1200.25 1200.01 1200.08 1199.63 1199.93C1199.39 1199.82 1199.15 1199.71 1198.9 1199.63C1198.47 1199.48 1198.03 1199.38 1197.59 1199.28C1197.37 1199.23 1197.16 1199.16 1196.93 1199.12C1196.26 1199 1195.57 1198.94 1194.86 1198.94C1194.16 1198.94 1193.47 1199 1192.8 1199.12C1192.57 1199.16 1192.36 1199.22 1192.14 1199.27C1191.7 1199.37 1191.26 1199.48 1190.83 1199.63C1190.58 1199.71 1190.35 1199.82 1190.1 1199.92C1189.72 1200.08 1189.35 1200.25 1188.99 1200.44C1188.75 1200.57 1188.52 1200.72 1188.29 1200.86C1187.95 1201.07 1187.63 1201.29 1187.31 1201.53C1187.09 1201.7 1186.88 1201.88 1186.67 1202.06C1186.38 1202.32 1186.1 1202.59 1185.83 1202.88C1185.64 1203.08 1185.45 1203.28 1185.27 1203.49C1185.02 1203.8 1184.79 1204.13 1184.56 1204.46C1184.41 1204.69 1184.26 1204.91 1184.12 1205.14C1183.91 1205.51 1183.73 1205.89 1183.55 1206.28C1183.45 1206.52 1183.33 1206.74 1183.24 1206.98C1183.22 1207.03 1183.19 1207.08 1183.17 1207.13H1179.43L1176.08 1204.33L1174.46 1195.2C1174.4 1194.87 1174.52 1194.65 1174.63 1194.51C1174.73 1194.4 1174.94 1194.2 1175.29 1194.2H1182.8C1182.83 1194.2 1182.86 1194.19 1182.88 1194.19H1248.86C1248.89 1194.19 1248.92 1194.2 1248.95 1194.2H1251.79C1254.62 1197.41 1258.24 1199.95 1262.44 1201.45C1262.68 1201.53 1262.93 1201.57 1263.19 1201.57C1263.44 1201.57 1263.69 1201.53 1263.93 1201.44C1264.5 1201.24 1265.06 1201.01 1265.6 1200.77L1263.89 1206.54ZM1276.61 1177.17C1276.61 1185.89 1271.25 1193.75 1263.19 1196.98C1255.12 1193.75 1249.75 1185.89 1249.75 1177.17V1171.18C1256.15 1170.38 1260.91 1167.6 1263.19 1166.01C1265.45 1167.6 1270.22 1170.38 1276.61 1171.18V1177.17Z" fill="#E52121"/>
    <path fill-rule="evenodd" clip-rule="evenodd" d="M718.068 641.419V618.267V614.451V603.509H701.186C698.966 603.509 697.158 601.702 697.158 599.481V596.47C697.158 594.257 698.959 592.457 701.172 592.457H725.874C723.185 589.932 721.489 585.683 721.489 582.452C721.489 577.293 725.633 573.095 730.727 573.095C735.821 573.095 739.966 577.293 739.966 582.452C739.966 585.683 738.27 589.932 735.581 592.457H740.055C744.673 592.457 748.43 596.213 748.43 600.83V614.42L748.43 618.251V620.909C748.43 623.139 746.622 624.953 744.4 624.953H741.162V641.419C741.162 643.615 739.369 645.403 737.164 645.403H729.622H728.639H722.067C719.862 645.403 718.068 643.615 718.068 641.419ZM725.305 582.452C725.305 579.397 727.737 576.911 730.727 576.911C733.718 576.911 736.15 579.397 736.15 582.452C736.15 585.897 733.346 590.793 730.727 590.793C728.109 590.793 725.305 585.897 725.305 582.452ZM744.4 621.137C744.501 621.137 744.614 621.044 744.614 620.909L744.614 600.83C744.614 598.317 742.569 596.272 740.055 596.272H701.172C701.063 596.272 700.974 596.361 700.974 596.47V599.481C700.974 599.598 701.069 599.693 701.186 599.693H719.976C721.029 599.693 721.884 600.548 721.884 601.601V641.419C721.884 641.5 721.957 641.587 722.067 641.587H727.709V628.595C727.709 627.541 728.563 626.687 729.617 626.687C730.67 626.687 731.525 627.541 731.525 628.595V641.583L737.164 641.587C737.273 641.587 737.346 641.5 737.346 641.419L737.344 609.378C737.344 608.325 738.199 607.47 739.252 607.47C740.306 607.47 741.16 608.325 741.16 609.378V621.137H744.4Z" fill="#E52121"/>
    <path fill-rule="evenodd" clip-rule="evenodd" d="M710.911 571.148C710.911 568.309 708.602 566 705.763 566H664.148C661.309 566 659 568.309 659 571.148V640.534C659 643.373 661.309 645.682 664.148 645.682H705.763C708.602 645.682 710.911 643.373 710.911 640.534V601.714H707.095V630.123H662.816V581.56H707.095V594.082H710.911V571.148ZM664.148 569.816C663.414 569.816 662.816 570.413 662.816 571.148L662.816 577.744H707.095V571.148C707.095 570.413 706.498 569.816 705.763 569.816H664.148ZM705.763 641.866C706.498 641.866 707.095 641.268 707.095 640.534L707.096 633.938H662.816V640.534C662.816 641.268 663.414 641.866 664.148 641.866H705.763Z" fill="#E52121"/>
    <path d="M684.955 641.367C686.868 641.367 688.419 639.816 688.419 637.903C688.419 635.989 686.868 634.438 684.955 634.438C683.041 634.438 681.49 635.989 681.49 637.903C681.49 639.816 683.041 641.367 684.955 641.367Z" fill="#E52121"/>
    <path d="M691.414 571.872H678.496C677.442 571.872 676.588 572.726 676.588 573.78C676.588 574.833 677.442 575.688 678.496 575.688H691.414C692.468 575.688 693.322 574.833 693.322 573.78C693.322 572.726 692.468 571.872 691.414 571.872Z" fill="#E52121"/>
    </svg>