<svg width="32" height="32" viewBox="0 0 32 32" fill="none" xmlns="http://www.w3.org/2000/svg">
<path d="M30 14H18V2C18 1.46957 17.7893 0.96086 17.4142 0.585787C17.0391 0.210714 16.5304 0 16 0C15.4696 0 14.9609 0.210714 14.5858 0.585787C14.2107 0.96086 14 1.46957 14 2V14H2C1.46957 14 0.96086 14.2107 0.585787 14.5858C0.210714 14.9609 0 15.4696 0 16C0 16.5304 0.210714 17.0391 0.585787 17.4142C0.96086 17.7893 1.46957 18 2 18H14V30C14 30.5304 14.2107 31.0391 14.5858 31.4142C14.9609 31.7893 15.4696 32 16 32C16.5304 32 17.0391 31.7893 17.4142 31.4142C17.7893 31.0391 18 30.5304 18 30V18H30C30.5304 18 31.0391 17.7893 31.4142 17.4142C31.7893 17.0391 32 16.5304 32 16C32 15.4696 31.7893 14.9609 31.4142 14.5858C31.0391 14.2107 30.5304 14 30 14Z" fill="#E52121"/>
</svg>
